<svg width="210" height="44" viewBox="0 0 210 44" fill="none" xmlns="http://www.w3.org/2000/svg">
<g clip-path="url(#clip0_1386_2290)">
<path fill-rule="evenodd" clip-rule="evenodd" d="M200.958 20.2969L209.269 20.297V16.1416L200.958 16.1416L195.972 16.1416L195.972 20.2969L191.816 20.297V23.6212V29.4387H195.972L195.972 33.5941H200.958H209.269V29.4387L200.958 29.4387L195.972 29.4387L195.972 26.9455H200.958H209.269V22.7902H200.958L195.972 22.7902L195.972 20.2969H200.958Z" fill="white"/>
<path fill-rule="evenodd" clip-rule="evenodd" d="M175.194 16.1416H171.039V33.5941H175.194H185.167V29.4387H189.323L189.323 20.297H185.167V16.1416L175.194 16.1416L175.194 16.1416ZM175.194 29.4387L175.194 20.2969L185.167 20.297V29.4387H175.194Z" fill="white"/>
<path fill-rule="evenodd" clip-rule="evenodd" d="M153.586 20.2969L164.39 20.297L164.39 29.4387L153.586 29.4387L153.586 20.2969ZM153.586 20.2969L149.431 20.297V29.4387H153.586L153.586 33.5941H164.39L164.39 29.4387L168.545 29.4387L168.545 20.297H164.39L164.39 16.1416L153.586 16.1416L153.586 20.2969Z" fill="white"/>
<path fill-rule="evenodd" clip-rule="evenodd" d="M146.938 20.297L133.641 20.2969L133.641 16.1416L146.938 16.1416V20.297ZM129.485 20.297H133.641V29.4387H129.485V20.297ZM133.641 33.5941H146.938V29.4387L133.641 29.4387L133.641 33.5941Z" fill="white"/>
<path d="M63.8378 33.596V9.35645H68.201V22.7574H68.8243L74.4998 15.8002H80.1788L72.5522 24.7101L80.4592 33.596H74.8495L68.8243 26.7743H68.201V33.596H63.8378Z" fill="white"/>
<path d="M82.6024 33.5971V15.7855H87.1272V33.5971H82.6024ZM84.8648 13.7027C84.0508 13.7027 83.3566 13.4394 82.782 12.9127C82.2314 12.386 81.9561 11.6917 81.9561 10.8299C81.9561 9.96802 82.2314 9.27375 82.782 8.74706C83.3566 8.22037 84.0508 7.95703 84.8648 7.95703C85.7027 7.95703 86.397 8.22037 86.9476 8.74706C87.4982 9.27375 87.7735 9.96802 87.7735 10.8299C87.7735 11.6917 87.4982 12.386 86.9476 12.9127C86.397 13.4394 85.7027 13.7027 84.8648 13.7027Z" fill="white"/>
<path d="M97.0927 34.0661C95.7776 34.0661 94.5406 33.7429 93.3815 33.0965C92.2448 32.4279 91.3309 31.4583 90.64 30.1878C89.949 28.9173 89.6035 27.3793 89.6035 25.5739V25.039C89.6035 23.2335 89.949 21.6956 90.64 20.4251C91.3309 19.1546 92.2448 18.1962 93.3815 17.5498C94.5183 16.8811 95.7553 16.5468 97.0927 16.5468C98.0957 16.5468 98.9316 16.6694 99.6002 16.9146C100.291 17.1374 100.848 17.4272 101.272 17.7838C101.695 18.1405 102.019 18.5194 102.242 18.9206H102.843V9.36328H107.056V33.598H102.91V31.592H102.308C101.929 32.2161 101.339 32.7845 100.536 33.2971C99.7563 33.8098 98.6084 34.0661 97.0927 34.0661ZM98.3632 30.3884C99.656 30.3884 100.737 29.976 101.606 29.1513C102.476 28.3043 102.91 27.0784 102.91 25.4736V25.1393C102.91 23.5345 102.476 22.3197 101.606 21.495C100.759 20.648 99.6782 20.2245 98.3632 20.2245C97.0704 20.2245 95.9894 20.648 95.1201 21.495C94.2508 22.3197 93.8162 23.5345 93.8162 25.1393V25.4736C93.8162 27.0784 94.2508 28.3043 95.1201 29.1513C95.9894 29.976 97.0704 30.3884 98.3632 30.3884Z" fill="white"/>
<path d="M118.266 33.7283C116.611 33.7283 115.123 33.3927 113.802 32.7214C112.482 32.0502 111.442 31.0769 110.681 29.8015C109.92 28.5261 109.54 26.9935 109.54 25.2035V24.6665C109.54 22.8765 109.92 21.3438 110.681 20.0684C111.442 18.793 112.482 17.8197 113.802 17.1485C115.123 16.4772 116.611 16.1416 118.266 16.1416C119.922 16.1416 121.41 16.4772 122.73 17.1485C124.05 17.8197 125.091 18.793 125.851 20.0684C126.612 21.3438 126.993 22.8765 126.993 24.6665V25.2035C126.993 26.9935 126.612 28.5261 125.851 29.8015C125.091 31.0769 124.05 32.0502 122.73 32.7214C121.41 33.3927 119.922 33.7283 118.266 33.7283ZM118.266 29.9693C119.564 29.9693 120.638 29.5554 121.488 28.7275C122.339 27.8773 122.764 26.669 122.764 25.1028V24.7671C122.764 23.2009 122.339 22.0038 121.488 21.176C120.66 20.3257 119.586 19.9006 118.266 19.9006C116.969 19.9006 115.895 20.3257 115.044 21.176C114.194 22.0038 113.769 23.2009 113.769 24.7671V25.1028C113.769 26.669 114.194 27.8773 115.044 28.7275C115.895 29.5554 116.969 29.9693 118.266 29.9693Z" fill="white"/>
</g>
<g clip-path="url(#clip1_1386_2290)">
<rect x="27.0771" y="11" width="3.38462" height="3.38462" fill="white"/>
<rect x="30.4619" y="14.3848" width="3.38462" height="3.38462" fill="white"/>
<rect x="27.0771" y="17.7695" width="3.38462" height="3.38462" fill="white"/>
<rect x="13.5381" y="11" width="3.38462" height="3.38462" fill="white"/>
<rect x="10.1543" y="14.3848" width="3.38462" height="3.38462" fill="white"/>
<rect x="13.5381" y="17.7695" width="3.38462" height="3.38462" fill="white"/>
<rect x="11.8457" y="26.2305" width="3.38462" height="3.38462" fill="white"/>
<rect x="28.7695" y="26.2305" width="3.38462" height="3.38462" fill="white"/>
<rect x="15.2305" y="29.6152" width="13.5385" height="3.38462" fill="white"/>
<rect x="1.69231" y="1.69231" width="40.6154" height="40.6154" rx="6.76923" stroke="white" stroke-width="3.38462"/>
</g>
<defs>
<clipPath id="clip0_1386_2290">
<rect width="146.716" height="27.2741" fill="white" transform="translate(63 7)"/>
</clipPath>
<clipPath id="clip1_1386_2290">
<rect width="44" height="44" fill="white"/>
</clipPath>
</defs>
</svg>
